<mxfile host="app.diagrams.net" modified="2023-08-18T01:38:06.404Z" agent="Mozilla/5.0 (Windows NT 10.0; Win64; x64) AppleWebKit/537.36 (KHTML, like Gecko) Chrome/116.0.0.0 Safari/537.36" etag="5ws3uowYWzepiG2tk7fE" version="21.6.8" type="github">
  <diagram name="페이지-1" id="3l_TX173V35YOyoUV0Ur">
    <mxGraphModel dx="538" dy="901" grid="1" gridSize="10" guides="1" tooltips="1" connect="1" arrows="1" fold="1" page="1" pageScale="1" pageWidth="827" pageHeight="1169" math="0" shadow="0">
      <root>
        <mxCell id="0" />
        <mxCell id="1" parent="0" />
        <mxCell id="VlyJxicDCmSpOdVswnm8-1" value="Account" style="swimlane;whiteSpace=wrap;html=1;" parent="1" vertex="1">
          <mxGeometry x="80" y="80" width="200" height="220" as="geometry" />
        </mxCell>
        <mxCell id="VlyJxicDCmSpOdVswnm8-3" value="&lt;div&gt;id: int&lt;/div&gt;&lt;div&gt;name : string&lt;/div&gt;&lt;div&gt;password: string&lt;/div&gt;&lt;div&gt;grade: int&lt;/div&gt;&lt;div&gt;dept: string&lt;/div&gt;" style="text;html=1;align=left;verticalAlign=middle;resizable=0;points=[];autosize=1;strokeColor=none;fillColor=none;" parent="VlyJxicDCmSpOdVswnm8-1" vertex="1">
          <mxGeometry x="20" y="45" width="110" height="90" as="geometry" />
        </mxCell>
        <mxCell id="VlyJxicDCmSpOdVswnm8-9" value="&lt;div&gt;user_login()&lt;/div&gt;&lt;div&gt;user_logout()&lt;/div&gt;&lt;div&gt;pw_update()&lt;/div&gt;" style="text;html=1;strokeColor=none;fillColor=none;align=left;verticalAlign=middle;whiteSpace=wrap;rounded=0;" parent="VlyJxicDCmSpOdVswnm8-1" vertex="1">
          <mxGeometry x="20" y="170" width="60" height="30" as="geometry" />
        </mxCell>
        <mxCell id="VlyJxicDCmSpOdVswnm8-8" value="" style="endArrow=none;html=1;rounded=0;" parent="VlyJxicDCmSpOdVswnm8-1" edge="1">
          <mxGeometry width="50" height="50" relative="1" as="geometry">
            <mxPoint x="200" y="150" as="sourcePoint" />
            <mxPoint y="150" as="targetPoint" />
          </mxGeometry>
        </mxCell>
        <mxCell id="VlyJxicDCmSpOdVswnm8-10" value="Reply" style="swimlane;whiteSpace=wrap;html=1;" parent="1" vertex="1">
          <mxGeometry x="80" y="410" width="200" height="220" as="geometry" />
        </mxCell>
        <mxCell id="VlyJxicDCmSpOdVswnm8-11" value="&lt;div&gt;id : int&lt;/div&gt;&lt;div&gt;comment : string&lt;/div&gt;&lt;div&gt;created_at : datetime&lt;/div&gt;&lt;div&gt;modified_at : datetime&lt;/div&gt;&lt;div&gt;account_id : int&lt;/div&gt;&lt;div&gt;board_id : int&lt;/div&gt;" style="text;html=1;align=left;verticalAlign=middle;resizable=0;points=[];autosize=1;strokeColor=none;fillColor=none;" parent="VlyJxicDCmSpOdVswnm8-10" vertex="1">
          <mxGeometry x="20" y="40" width="140" height="100" as="geometry" />
        </mxCell>
        <mxCell id="VlyJxicDCmSpOdVswnm8-12" value="&lt;div&gt;reply_write()&lt;/div&gt;&lt;div&gt;reply_delete()&lt;/div&gt;&lt;div&gt;reply_update()&lt;/div&gt;" style="text;html=1;strokeColor=none;fillColor=none;align=left;verticalAlign=middle;whiteSpace=wrap;rounded=0;" parent="VlyJxicDCmSpOdVswnm8-10" vertex="1">
          <mxGeometry x="20" y="170" width="60" height="30" as="geometry" />
        </mxCell>
        <mxCell id="VlyJxicDCmSpOdVswnm8-17" value="" style="endArrow=none;html=1;rounded=0;" parent="VlyJxicDCmSpOdVswnm8-10" edge="1">
          <mxGeometry width="50" height="50" relative="1" as="geometry">
            <mxPoint x="200" y="150" as="sourcePoint" />
            <mxPoint y="150" as="targetPoint" />
          </mxGeometry>
        </mxCell>
        <mxCell id="VlyJxicDCmSpOdVswnm8-13" value="Board" style="swimlane;whiteSpace=wrap;html=1;" parent="1" vertex="1">
          <mxGeometry x="530" y="80" width="200" height="220" as="geometry" />
        </mxCell>
        <mxCell id="VlyJxicDCmSpOdVswnm8-14" value="id : int&lt;br&gt;title : string&lt;br&gt;content : string&lt;br&gt;create_at :datetime&lt;br&gt;modified_at : datetime&amp;nbsp;&lt;br&gt;account_id : int" style="text;html=1;align=left;verticalAlign=middle;resizable=0;points=[];autosize=1;strokeColor=none;fillColor=none;" parent="VlyJxicDCmSpOdVswnm8-13" vertex="1">
          <mxGeometry x="20" y="40" width="140" height="100" as="geometry" />
        </mxCell>
        <mxCell id="VlyJxicDCmSpOdVswnm8-15" value="board_write()&lt;br&gt;board_delete()&lt;br&gt;board_update()" style="text;html=1;strokeColor=none;fillColor=none;align=left;verticalAlign=middle;whiteSpace=wrap;rounded=0;" parent="VlyJxicDCmSpOdVswnm8-13" vertex="1">
          <mxGeometry x="20" y="170" width="60" height="30" as="geometry" />
        </mxCell>
        <mxCell id="VlyJxicDCmSpOdVswnm8-16" value="" style="endArrow=none;html=1;rounded=0;" parent="VlyJxicDCmSpOdVswnm8-13" edge="1">
          <mxGeometry width="50" height="50" relative="1" as="geometry">
            <mxPoint x="200" y="150" as="sourcePoint" />
            <mxPoint y="150" as="targetPoint" />
          </mxGeometry>
        </mxCell>
        <mxCell id="VlyJxicDCmSpOdVswnm8-19" value="" style="endArrow=none;html=1;rounded=0;exitX=1;exitY=0.5;exitDx=0;exitDy=0;entryX=0;entryY=0.5;entryDx=0;entryDy=0;" parent="1" source="VlyJxicDCmSpOdVswnm8-1" target="VlyJxicDCmSpOdVswnm8-13" edge="1">
          <mxGeometry width="50" height="50" relative="1" as="geometry">
            <mxPoint x="390" y="220" as="sourcePoint" />
            <mxPoint x="440" y="170" as="targetPoint" />
          </mxGeometry>
        </mxCell>
        <mxCell id="VlyJxicDCmSpOdVswnm8-20" value="&lt;b&gt;1&lt;/b&gt;" style="text;html=1;strokeColor=none;fillColor=none;align=center;verticalAlign=middle;whiteSpace=wrap;rounded=0;" parent="1" vertex="1">
          <mxGeometry x="270" y="160" width="60" height="30" as="geometry" />
        </mxCell>
        <mxCell id="VlyJxicDCmSpOdVswnm8-21" value="&lt;b&gt;0..*&lt;/b&gt;" style="text;html=1;strokeColor=none;fillColor=none;align=center;verticalAlign=middle;whiteSpace=wrap;rounded=0;" parent="1" vertex="1">
          <mxGeometry x="470" y="160" width="60" height="30" as="geometry" />
        </mxCell>
        <mxCell id="VlyJxicDCmSpOdVswnm8-24" value="" style="endArrow=none;html=1;rounded=0;exitX=0.5;exitY=0;exitDx=0;exitDy=0;" parent="1" source="VlyJxicDCmSpOdVswnm8-10" edge="1">
          <mxGeometry width="50" height="50" relative="1" as="geometry">
            <mxPoint x="170" y="400" as="sourcePoint" />
            <mxPoint x="180" y="300" as="targetPoint" />
          </mxGeometry>
        </mxCell>
        <mxCell id="VlyJxicDCmSpOdVswnm8-25" value="&lt;b&gt;1&lt;/b&gt;" style="text;html=1;strokeColor=none;fillColor=none;align=center;verticalAlign=middle;whiteSpace=wrap;rounded=0;" parent="1" vertex="1">
          <mxGeometry x="160" y="300" width="60" height="30" as="geometry" />
        </mxCell>
        <mxCell id="VlyJxicDCmSpOdVswnm8-26" value="&lt;b&gt;0..*&lt;/b&gt;" style="text;html=1;strokeColor=none;fillColor=none;align=center;verticalAlign=middle;whiteSpace=wrap;rounded=0;" parent="1" vertex="1">
          <mxGeometry x="170" y="380" width="60" height="30" as="geometry" />
        </mxCell>
        <mxCell id="VlyJxicDCmSpOdVswnm8-27" value="" style="endArrow=none;html=1;rounded=0;" parent="1" edge="1">
          <mxGeometry width="50" height="50" relative="1" as="geometry">
            <mxPoint x="280" y="530" as="sourcePoint" />
            <mxPoint x="640" y="300" as="targetPoint" />
          </mxGeometry>
        </mxCell>
        <mxCell id="VlyJxicDCmSpOdVswnm8-28" value="&lt;b&gt;0..*&lt;/b&gt;" style="text;html=1;strokeColor=none;fillColor=none;align=center;verticalAlign=middle;whiteSpace=wrap;rounded=0;" parent="1" vertex="1">
          <mxGeometry x="290" y="520" width="60" height="30" as="geometry" />
        </mxCell>
        <mxCell id="VlyJxicDCmSpOdVswnm8-29" value="&lt;b&gt;1&lt;/b&gt;" style="text;html=1;strokeColor=none;fillColor=none;align=center;verticalAlign=middle;whiteSpace=wrap;rounded=0;" parent="1" vertex="1">
          <mxGeometry x="610" y="310" width="60" height="30" as="geometry" />
        </mxCell>
        <mxCell id="DwBi-YwnyckmTDghMK3m-1" value="Topic" style="swimlane;whiteSpace=wrap;html=1;" vertex="1" parent="1">
          <mxGeometry x="820" y="80" width="200" height="220" as="geometry" />
        </mxCell>
        <mxCell id="DwBi-YwnyckmTDghMK3m-2" value="topic_no : int&lt;br&gt;title : string&lt;br&gt;url: string&lt;br&gt;press: string&lt;br&gt;date: datetime&amp;nbsp;&lt;br&gt;content : string" style="text;html=1;align=left;verticalAlign=middle;resizable=0;points=[];autosize=1;strokeColor=none;fillColor=none;" vertex="1" parent="DwBi-YwnyckmTDghMK3m-1">
          <mxGeometry x="20" y="40" width="100" height="100" as="geometry" />
        </mxCell>
        <mxCell id="DwBi-YwnyckmTDghMK3m-3" value="topic_display()&lt;br&gt;article_display()" style="text;html=1;strokeColor=none;fillColor=none;align=left;verticalAlign=middle;whiteSpace=wrap;rounded=0;" vertex="1" parent="DwBi-YwnyckmTDghMK3m-1">
          <mxGeometry x="20" y="170" width="60" height="30" as="geometry" />
        </mxCell>
        <mxCell id="DwBi-YwnyckmTDghMK3m-4" value="" style="endArrow=none;html=1;rounded=0;" edge="1" parent="DwBi-YwnyckmTDghMK3m-1">
          <mxGeometry width="50" height="50" relative="1" as="geometry">
            <mxPoint x="200" y="150" as="sourcePoint" />
            <mxPoint y="150" as="targetPoint" />
          </mxGeometry>
        </mxCell>
        <mxCell id="DwBi-YwnyckmTDghMK3m-5" value="marketing" style="swimlane;whiteSpace=wrap;html=1;" vertex="1" parent="1">
          <mxGeometry x="740" y="340" width="200" height="220" as="geometry" />
        </mxCell>
        <mxCell id="DwBi-YwnyckmTDghMK3m-6" value="marketing_no : int&lt;br&gt;contetn : string" style="text;html=1;align=left;verticalAlign=middle;resizable=0;points=[];autosize=1;strokeColor=none;fillColor=none;" vertex="1" parent="DwBi-YwnyckmTDghMK3m-5">
          <mxGeometry x="20" y="70" width="120" height="40" as="geometry" />
        </mxCell>
        <mxCell id="DwBi-YwnyckmTDghMK3m-7" value="marketing_display()" style="text;html=1;strokeColor=none;fillColor=none;align=left;verticalAlign=middle;whiteSpace=wrap;rounded=0;" vertex="1" parent="DwBi-YwnyckmTDghMK3m-5">
          <mxGeometry x="20" y="170" width="60" height="30" as="geometry" />
        </mxCell>
        <mxCell id="DwBi-YwnyckmTDghMK3m-8" value="" style="endArrow=none;html=1;rounded=0;" edge="1" parent="DwBi-YwnyckmTDghMK3m-5">
          <mxGeometry width="50" height="50" relative="1" as="geometry">
            <mxPoint x="200" y="150" as="sourcePoint" />
            <mxPoint y="150" as="targetPoint" />
          </mxGeometry>
        </mxCell>
      </root>
    </mxGraphModel>
  </diagram>
</mxfile>
